# xmcd
#
# Track frame offsets:
# 150
# 19144
# 39991
# 62664
# 80870
# 106577
# 126333
# 148686
# 169025
# 170165
# 171267
# 173892
# 175482
# 177827
# 179086
# 180554
#
# Disc length: 2421 seconds
#
#
# Revision: 0
# Processed by: cddbd v1.5.2PL0 Copyright (c) Steve Scherf et al.
# Submitted via: FreeRIP 2.945 
#
DISCID=e2097310
DTITLE=Various Artist - Total Guitar #195 Blues Backing Tracks
DYEAR=2009
DGENRE=
TTITLE0=Blues Rock
TTITLE1=Shuffle Blues
TTITLE2=Slow Blues
TTITLE3=Duo Blues
TTITLE4=Ballad Blues
TTITLE5=Upbeat Blues
TTITLE6=Heavy Blues
TTITLE7=Acoustic Blues
TTITLE8=Blues Rock Lick
TTITLE9=Shuffle Blues Lick
TTITLE10=Slow Blues Lick
TTITLE11=Duo Blues Lick
TTITLE12=Ballad Blues Lick
TTITLE13=Upbeat Blues Lick
TTITLE14=Heavy Blues Lick
TTITLE15=Acoustic Blues Lick
EXTD=RK
EXTT0=
EXTT1=
EXTT2=
EXTT3=
EXTT4=
EXTT5=
EXTT6=
EXTT7=
EXTT8=
EXTT9=
EXTT10=
EXTT11=
EXTT12=
EXTT13=
EXTT14=
EXTT15=
PLAYORDER=
